<svg width="16" height="13" viewBox="0 0 16 13" fill="none" xmlns="http://www.w3.org/2000/svg">
<path d="M0.143011 0.31C0.259756 0.14908 0.435617 0.0410968 0.631943 0.00978208C0.82827 -0.0215327 1.029 0.0263835 1.19001 0.143L15.69 10.643C15.7728 10.6995 15.8435 10.7721 15.8978 10.8564C15.9521 10.9407 15.9889 11.0351 16.0061 11.1339C16.0233 11.2326 16.0205 11.3339 15.9979 11.4316C15.9753 11.5293 15.9333 11.6214 15.8744 11.7026C15.8156 11.7838 15.7411 11.8524 15.6552 11.9043C15.5694 11.9562 15.4741 11.9903 15.3748 12.0047C15.2756 12.0191 15.1745 12.0134 15.0775 11.9881C14.9804 11.9627 14.8895 11.9181 14.81 11.857L12.562 10.229C11.346 11.19 9.79201 12 8.00001 12C6.01901 12 4.33001 11.008 3.06701 9.922C1.79701 8.832 0.880011 7.577 0.430011 6.9C0.25265 6.63391 0.158008 6.32128 0.158008 6.0015C0.158008 5.68172 0.25265 5.36909 0.430011 5.103C0.783011 4.57 1.42501 3.683 2.29801 2.798L0.310011 1.357C0.149091 1.24025 0.0411074 1.06439 0.00979263 0.868067C-0.0215221 0.671741 0.0263941 0.471013 0.143011 0.31ZM1.67901 5.932C1.66494 5.95191 1.65727 5.97562 1.65701 6C1.65634 6.022 1.66368 6.04467 1.67901 6.068C2.09101 6.689 2.92101 7.818 4.04501 8.785C5.17501 9.758 6.52701 10.5 8.00001 10.5C9.19501 10.5 10.31 10.012 11.29 9.309L9.06301 7.695C8.72537 7.90708 8.33205 8.0134 7.93355 8.00031C7.53505 7.98721 7.14955 7.85531 6.82656 7.62153C6.50357 7.38775 6.25782 7.06277 6.12088 6.68831C5.98394 6.31384 5.96204 5.907 6.05801 5.52L3.52901 3.688C2.83717 4.37071 2.21725 5.12266 1.67901 5.932ZM8.00001 1.5C7.48401 1.5 6.98301 1.59 6.50101 1.751C6.40688 1.78486 6.30693 1.79955 6.20704 1.79421C6.10715 1.78886 6.00934 1.76358 5.91937 1.71987C5.82939 1.67615 5.74907 1.61488 5.68313 1.53965C5.61719 1.46443 5.56697 1.37677 5.53542 1.28185C5.50386 1.18692 5.49162 1.08664 5.4994 0.986913C5.50719 0.887183 5.53484 0.790019 5.58074 0.701138C5.62665 0.612257 5.68986 0.533457 5.76667 0.469375C5.84349 0.405294 5.93234 0.357225 6.02801 0.328C6.66327 0.112715 7.32926 0.00194248 8.00001 0C9.98101 0 11.67 0.992 12.933 2.078C14.203 3.169 15.12 4.423 15.57 5.101C15.7476 5.36719 15.8423 5.68001 15.8423 6C15.8423 6.31999 15.7476 6.63281 15.57 6.899C15.46 7.065 15.322 7.264 15.16 7.486C15.1018 7.56545 15.0284 7.63265 14.9442 7.68376C14.86 7.73488 14.7666 7.7689 14.6692 7.7839C14.5718 7.7989 14.4725 7.79457 14.3768 7.77117C14.2811 7.74776 14.191 7.70574 14.1115 7.6475C14.0321 7.58926 13.9649 7.51594 13.9137 7.43173C13.8626 7.34752 13.8286 7.25406 13.8136 7.1567C13.7986 7.05934 13.8029 6.95997 13.8263 6.86428C13.8497 6.76859 13.8918 6.67845 13.95 6.599C14.098 6.398 14.222 6.217 14.321 6.069C14.335 6.04889 14.3425 6.02499 14.3425 6.0005C14.3425 5.97601 14.335 5.95211 14.321 5.932C13.909 5.311 13.079 4.182 11.955 3.215C10.825 2.242 9.47301 1.5 8.00001 1.5Z" fill="black"/>
</svg>
