<svg width="16" height="12" viewBox="0 0 16 12" fill="none" xmlns="http://www.w3.org/2000/svg">
<path d="M7.99999 0C9.98099 0 11.671 0.992 12.933 2.078C14.203 3.169 15.12 4.423 15.57 5.101C15.7476 5.36719 15.8423 5.68001 15.8423 6C15.8423 6.31999 15.7476 6.63281 15.57 6.899C15.12 7.577 14.203 8.831 12.933 9.922C11.67 11.008 9.98099 12 7.99999 12C6.01899 12 4.32899 11.008 3.06699 9.922C1.79699 8.83 0.87999 7.576 0.42999 6.898C0.252417 6.63181 0.157654 6.31899 0.157654 5.999C0.157654 5.67901 0.252417 5.36619 0.42999 5.1C0.87999 4.423 1.79699 3.169 3.06699 2.078C4.32999 0.992 6.01899 0 7.99999 0ZM1.67899 5.932C1.66523 5.95201 1.65786 5.97572 1.65786 6C1.65786 6.02428 1.66523 6.04799 1.67899 6.068C2.08999 6.69 2.91999 7.818 4.04499 8.785C5.17599 9.758 6.52699 10.5 7.99999 10.5C9.47299 10.5 10.825 9.758 11.955 8.785C13.079 7.818 13.909 6.689 14.321 6.068C14.3347 6.04799 14.3421 6.02428 14.3421 6C14.3421 5.97572 14.3347 5.95201 14.321 5.932C13.909 5.311 13.079 4.182 11.955 3.215C10.824 2.242 9.47299 1.5 7.99999 1.5C6.52699 1.5 5.17499 2.242 4.04499 3.215C2.92099 4.182 2.09099 5.311 1.67899 5.932ZM7.99999 8C7.73365 8.00602 7.46879 7.95877 7.22096 7.86103C6.97314 7.76328 6.74734 7.61701 6.55682 7.4308C6.3663 7.24458 6.2149 7.02218 6.11152 6.77666C6.00813 6.53113 5.95484 6.26742 5.95477 6.00101C5.95471 5.7346 6.00787 5.47087 6.11113 5.22529C6.21439 4.97971 6.36568 4.75723 6.5561 4.57093C6.74653 4.38462 6.97226 4.23823 7.22003 4.14036C7.46781 4.04249 7.73265 3.99511 7.99899 4.001C8.52155 4.01256 9.01882 4.22822 9.38436 4.60184C9.74989 4.97545 9.95464 5.47732 9.95477 6.00001C9.9549 6.5227 9.75041 7.02467 9.38506 7.39847C9.01971 7.77227 8.52255 7.98818 7.99999 8Z" fill="black"/>
</svg>
